<?xml version="1.0" encoding="utf-8"?>
<!-- Generator: Adobe Illustrator 18.1.0, SVG Export Plug-In . SVG Version: 6.00 Build 0)  -->
<!DOCTYPE svg PUBLIC "-//W3C//DTD SVG 1.1//EN" "http://www.w3.org/Graphics/SVG/1.1/DTD/svg11.dtd">
<svg version="1.1" id="Layer_1" xmlns="http://www.w3.org/2000/svg" xmlns:xlink="http://www.w3.org/1999/xlink" x="0px" y="0px"
	 viewBox="0 0 50.1 195.9" enable-background="new 0 0 50.1 195.9" xml:space="preserve">
<g>
	<rect x="0" y="154.5" fill="#E6E7E8" width="10.4" height="41.4"/>
	<rect x="0" y="115.9" fill="#DFB7A7" width="10.4" height="41.4"/>
	<rect x="0" y="77.2" fill="#D88B73" width="10.4" height="41.4"/>
	<rect x="0" y="38.6" fill="#D36148" width="10.4" height="41.4"/>
	<rect x="0" y="0" fill="#CE2727" width="10.4" height="41.4"/>
</g>
<g>
	<rect x="39.7" y="154.5" fill="#1F1611" width="10.4" height="41.4"/>
	<rect x="39.7" y="115.9" fill="#46271F" width="10.4" height="41.4"/>
	<rect x="39.7" y="77.2" fill="#6D3024" width="10.4" height="41.4"/>
	<rect x="39.7" y="38.6" fill="#9B3327" width="10.4" height="41.4"/>
	<rect x="39.7" y="0" fill="#CE2727" width="10.4" height="41.4"/>
</g>
<g>
	<rect x="9.9" y="154.5" fill="#A39D9B" width="10.4" height="41.4"/>
	<rect x="9.9" y="115.9" fill="#AF887A" width="10.4" height="41.4"/>
	<rect x="9.8" y="77.2" fill="#BA715C" width="10.4" height="41.4"/>
	<rect x="9.8" y="38.6" fill="#C4553E" width="10.4" height="41.4"/>
	<rect x="9.7" y="0" fill="#CE2727" width="10.4" height="41.4"/>
</g>
<g>
	<rect x="19.9" y="154.5" fill="#6E6662" width="10.4" height="41.4"/>
	<rect x="19.9" y="115.9" fill="#866256" width="10.4" height="41.4"/>
	<rect x="19.9" y="77.2" fill="#9E5A48" width="10.4" height="41.4"/>
	<rect x="19.9" y="38.6" fill="#B64936" width="10.4" height="41.4"/>
	<rect x="19.9" y="0" fill="#CE2727" width="10.4" height="41.4"/>
</g>
<g>
	<rect x="29.8" y="154.5" fill="#453C38" width="10.4" height="41.4"/>
	<rect x="29.8" y="115.9" fill="#634339" width="10.4" height="41.4"/>
	<rect x="29.8" y="77.2" fill="#844435" width="10.4" height="41.4"/>
	<rect x="29.9" y="38.6" fill="#A83D2E" width="10.4" height="41.4"/>
	<rect x="29.9" y="0" fill="#CE2727" width="10.4" height="41.4"/>
</g>
</svg>
