<?xml version="1.0" encoding="utf-8"?>
<!DOCTYPE svg PUBLIC "-//W3C//DTD SVG 1.1//EN" "http://www.w3.org/Graphics/SVG/1.1/DTD/svg11.dtd">
<svg version="1.1" id="Layer_1" xmlns="http://www.w3.org/2000/svg" xmlns:xlink="http://www.w3.org/1999/xlink" x="0px" y="0px"
	 viewBox="0 0 792 612" enable-background="new 0 0 792 612" xml:space="preserve">
<g>
	<rect x="317.7" y="482.7" fill="#E6E7E8" stroke="#FFFFFF" stroke-miterlimit="10" width="32.5" height="129.3"/>
	<rect x="317.7" y="362.1" fill="#DFB7A7" stroke="#FFFFFF" stroke-miterlimit="10" width="32.5" height="129.3"/>
	<rect x="317.7" y="241.2" fill="#D88B73" stroke="#FFFFFF" stroke-miterlimit="10" width="32.5" height="129.3"/>
	<rect x="317.7" y="120.6" fill="#D36148" stroke="#FFFFFF" stroke-miterlimit="10" width="32.5" height="129.3"/>
	<rect x="317.7" y="0" fill="#CE2727" stroke="#FFFFFF" stroke-miterlimit="10" width="32.5" height="129.3"/>
</g>
<g>
	<rect x="441.8" y="482.7" fill="#1F1611" stroke="#FFFFFF" stroke-miterlimit="10" width="32.5" height="129.3"/>
	<rect x="441.8" y="362.1" fill="#46271F" stroke="#FFFFFF" stroke-miterlimit="10" width="32.5" height="129.3"/>
	<rect x="441.8" y="241.2" fill="#6D3024" stroke="#FFFFFF" stroke-miterlimit="10" width="32.5" height="129.3"/>
	<rect x="441.8" y="120.6" fill="#9B3327" stroke="#FFFFFF" stroke-miterlimit="10" width="32.5" height="129.3"/>
	<rect x="441.8" y="0" fill="#CE2727" stroke="#FFFFFF" stroke-miterlimit="10" width="32.5" height="129.3"/>
</g>
<g>
	<rect x="348.7" y="482.7" fill="#A39D9B" stroke="#FFFFFF" stroke-miterlimit="10" width="32.5" height="129.3"/>
	<rect x="348.7" y="362.1" fill="#AF887A" stroke="#FFFFFF" stroke-miterlimit="10" width="32.5" height="129.3"/>
	<rect x="348.4" y="241.2" fill="#BA715C" stroke="#FFFFFF" stroke-miterlimit="10" width="32.5" height="129.3"/>
	<rect x="348.4" y="120.6" fill="#C4553E" stroke="#FFFFFF" stroke-miterlimit="10" width="32.5" height="129.3"/>
	<rect x="348" y="0" fill="#CE2727" stroke="#FFFFFF" stroke-miterlimit="10" width="32.5" height="129.3"/>
</g>
<g>
	<rect x="379.9" y="482.7" fill="#6E6662" stroke="#FFFFFF" stroke-miterlimit="10" width="32.5" height="129.3"/>
	<rect x="379.9" y="362.1" fill="#866256" stroke="#FFFFFF" stroke-miterlimit="10" width="32.5" height="129.3"/>
	<rect x="379.9" y="241.2" fill="#9E5A48" stroke="#FFFFFF" stroke-miterlimit="10" width="32.5" height="129.3"/>
	<rect x="379.9" y="120.6" fill="#B64936" stroke="#FFFFFF" stroke-miterlimit="10" width="32.5" height="129.3"/>
	<rect x="379.9" y="0" fill="#CE2727" stroke="#FFFFFF" stroke-miterlimit="10" width="32.5" height="129.3"/>
</g>
<g>
	<rect x="410.8" y="482.7" fill="#453C38" stroke="#FFFFFF" stroke-miterlimit="10" width="32.5" height="129.3"/>
	<rect x="410.8" y="362.1" fill="#634339" stroke="#FFFFFF" stroke-miterlimit="10" width="32.5" height="129.3"/>
	<rect x="410.8" y="241.2" fill="#844435" stroke="#FFFFFF" stroke-miterlimit="10" width="32.5" height="129.3"/>
	<rect x="411.2" y="120.6" fill="#A83D2E" stroke="#FFFFFF" stroke-miterlimit="10" width="32.5" height="129.3"/>
	<rect x="411.2" y="0" fill="#CE2727" stroke="#FFFFFF" stroke-miterlimit="10" width="32.5" height="129.3"/>
</g>
</svg>
