<?xml version="1.0" encoding="utf-8"?>
<!-- Generator: Adobe Illustrator 18.1.0, SVG Export Plug-In . SVG Version: 6.00 Build 0)  -->
<!DOCTYPE svg PUBLIC "-//W3C//DTD SVG 1.1//EN" "http://www.w3.org/Graphics/SVG/1.1/DTD/svg11.dtd">
<svg version="1.1" id="Layer_1" xmlns="http://www.w3.org/2000/svg" xmlns:xlink="http://www.w3.org/1999/xlink" x="0px" y="0px"
	 viewBox="165.6 -107.4 700.4 854.4" enable-background="new 165.6 -107.4 700.4 854.4" xml:space="preserve">
<g>
	<rect x="317.7" y="482.7" fill="#E6E7E8" stroke="#FFFFFF" stroke-width="2" stroke-miterlimit="10" width="61.9" height="129.3"/>
	<rect x="317.7" y="362.1" fill="#DFB7A7" stroke="#FFFFFF" stroke-width="2" stroke-miterlimit="10" width="61.9" height="129.3"/>
	<rect x="317.7" y="241.2" fill="#D88B73" stroke="#FFFFFF" stroke-width="2" stroke-miterlimit="10" width="61.9" height="129.3"/>
	<rect x="317.7" y="120.6" fill="#D36148" stroke="#FFFFFF" stroke-width="2" stroke-miterlimit="10" width="61.9" height="129.3"/>
	<rect x="317.7" y="0" fill="#CE2727" stroke="#FFFFFF" stroke-width="2" stroke-miterlimit="10" width="61.9" height="129.3"/>
</g>
<g>
	<rect x="554.1" y="482.7" fill="#1F1611" stroke="#FFFFFF" stroke-width="2" stroke-miterlimit="10" width="61.9" height="129.3"/>
	<rect x="554.1" y="362.1" fill="#46271F" stroke="#FFFFFF" stroke-width="2" stroke-miterlimit="10" width="61.9" height="129.3"/>
	<rect x="554.1" y="241.2" fill="#6D3024" stroke="#FFFFFF" stroke-width="2" stroke-miterlimit="10" width="61.9" height="129.3"/>
	<rect x="554.1" y="120.6" fill="#9B3327" stroke="#FFFFFF" stroke-width="2" stroke-miterlimit="10" width="61.9" height="129.3"/>
	<rect x="554.1" y="0" fill="#CE2727" stroke="#FFFFFF" stroke-width="2" stroke-miterlimit="10" width="61.9" height="129.3"/>
</g>
<g>
	<rect x="376.7" y="482.7" fill="#A39D9B" stroke="#FFFFFF" stroke-width="2" stroke-miterlimit="10" width="61.9" height="129.3"/>
	<rect x="376.7" y="362.1" fill="#AF887A" stroke="#FFFFFF" stroke-width="2" stroke-miterlimit="10" width="61.9" height="129.3"/>
	<rect x="376.1" y="241.2" fill="#BA715C" stroke="#FFFFFF" stroke-width="2" stroke-miterlimit="10" width="61.9" height="129.3"/>
	<rect x="376.1" y="120.6" fill="#C4553E" stroke="#FFFFFF" stroke-width="2" stroke-miterlimit="10" width="61.9" height="129.3"/>
	<rect x="375.5" y="0" fill="#CE2727" stroke="#FFFFFF" stroke-width="2" stroke-miterlimit="10" width="61.9" height="129.3"/>
</g>
<g>
	<rect x="436.2" y="482.7" fill="#6E6662" stroke="#FFFFFF" stroke-width="2" stroke-miterlimit="10" width="61.9" height="129.3"/>
	<rect x="436.2" y="362.1" fill="#866256" stroke="#FFFFFF" stroke-width="2" stroke-miterlimit="10" width="61.9" height="129.3"/>
	<rect x="436.2" y="241.2" fill="#9E5A48" stroke="#FFFFFF" stroke-width="2" stroke-miterlimit="10" width="61.9" height="129.3"/>
	<rect x="436.2" y="120.6" fill="#B64936" stroke="#FFFFFF" stroke-width="2" stroke-miterlimit="10" width="61.9" height="129.3"/>
	<rect x="436.2" y="0" fill="#CE2727" stroke="#FFFFFF" stroke-width="2" stroke-miterlimit="10" width="61.9" height="129.3"/>
</g>
<g>
	<rect x="495.1" y="482.7" fill="#453C38" stroke="#FFFFFF" stroke-width="2" stroke-miterlimit="10" width="61.9" height="129.3"/>
	<rect x="495.1" y="362.1" fill="#634339" stroke="#FFFFFF" stroke-width="2" stroke-miterlimit="10" width="61.9" height="129.3"/>
	<rect x="495.1" y="241.2" fill="#844435" stroke="#FFFFFF" stroke-width="2" stroke-miterlimit="10" width="61.9" height="129.3"/>
	<rect x="495.7" y="120.6" fill="#A83D2E" stroke="#FFFFFF" stroke-width="2" stroke-miterlimit="10" width="61.9" height="129.3"/>
	<rect x="495.7" y="0" fill="#CE2727" stroke="#FFFFFF" stroke-width="2" stroke-miterlimit="10" width="61.9" height="129.3"/>
</g>
<text transform="matrix(4.489660e-11 -1 1 4.489660e-11 248.5527 611.9998)" fill="#999999" font-family="'DroidSans'" font-size="76.7792">More per Day</text>
<text transform="matrix(1 0 0 1 317.7422 726.3769)" fill="#999999" font-family="'DroidSans'" font-size="76.7792">More per Week</text>
<text transform="matrix(1 0 0 1 317.7422 -35.5851)" fill="#999999" font-family="'DroidSans'" font-size="76.7792">ARTICLES</text>
<g>
	<g>
		<line fill="none" stroke="#999999" stroke-width="7" stroke-miterlimit="10" x1="281" y1="612" x2="281" y2="62"/>
		<g>
			<polygon fill="#999999" points="301.3,75.9 281,0 260.7,75.9 			"/>
		</g>
	</g>
</g>
<g>
	<g>
		<line fill="none" stroke="#999999" stroke-width="7" stroke-miterlimit="10" x1="317.7" y1="648" x2="554" y2="648"/>
		<g>
			<polygon fill="#999999" points="540.1,668.3 616,648 540.1,627.7 			"/>
		</g>
	</g>
</g>
</svg>
